# xmcd CD database file generated by OrangeCD 6.3
#
# Track frame offsets:
#	150
#	14549
#	35544
#	56316
#	70415
#	92164
#	119687
#	140308
#	167829
#	192950
#	262478
#	325184
#
# Disc length: 4645 seconds
#
# Revision: 1
# Processed by: cddbd v1.5.2PL0 Copyright (c) Steve Scherf et al.
# Submitted via: OrangeCD 6.3
#
DISCID=b412230c
DTITLE=Юрий Наумов - Перекати Поле (+ bonus) 
DYEAR=1900
DGENRE=
TTITLE0=Сумерки (Инстр.) 
TTITLE1=Глоток воздуха  (Ты не права, мама)
TTITLE2=Куда течет кровь ?
TTITLE3=Был ли ты?
TTITLE4=Блюз о недобитом времени 
TTITLE5=Я знаю
TTITLE6=Кто-нибудь ждет 
TTITLE7=Возвращение блудного сына 
TTITLE8=Путь наверх 
TTITLE9=Частушки 
TTITLE10=Метафизические опыты 
TTITLE11=666-й блюз 
EXTD=
EXTT0=
EXTT1=
EXTT2=
EXTT3=
EXTT4=
EXTT5=
EXTT6=
EXTT7=
EXTT8=
EXTT9=
EXTT10=
EXTT11=
PLAYORDER=
